# xmcd
#
# Track frame offsets: 
#        150
#        20284
#        38747
#        42804
#        54336
#        70249
#        89977
#        109296
#        120880
#        131044
#        147304
#        160472
#        182685
#        201117
#        220996
#        238141
#        248769
#        290606
#        322414
#
# Disc length: 4680 seconds
#
# Revision: 0
# Processed by: cddbd v1.5.2PL0 Copyright (c) Steve Scherf et al.
# Submitted via: ExactAudioCopyFreeDBPlugin 1.0
#
DISCID=25124613
DTITLE=Sampa The Great - The Return
DYEAR=2019
DGENRE=No, thanks.
TTITLE0=Mwana
TTITLE1=Freedom
TTITLE2=Wake Up (Interlude)
TTITLE3=Time's Up
TTITLE4=Grass Is Greener
TTITLE5=Dare to Fly
TTITLE6=Any Day
TTITLE7=OMG
TTITLE8=Light It Up (Interlude)
TTITLE9=Final Form
TTITLE10=Heaven
TTITLE11=Diamond in the Ruff
TTITLE12=Leading Us Home
TTITLE13=Summer
TTITLE14=Brand New
TTITLE15=Give Love (Interlude)
TTITLE16=The Return
TTITLE17=Don’t Give Up
TTITLE18=Made Us Better
EXTD=
EXTT0=
EXTT1=
EXTT2=
EXTT3=
EXTT4=
EXTT5=
EXTT6=
EXTT7=
EXTT8=
EXTT9=
EXTT10=
EXTT11=
EXTT12=
EXTT13=
EXTT14=
EXTT15=
EXTT16=
EXTT17=
EXTT18=
PLAYORDER=
